<svg xmlns="http://www.w3.org/2000/svg" xmlns:xlink="http://www.w3.org/1999/xlink" width="500" zoomAndPan="magnify" viewBox="0 0 375 374.999991" height="500" preserveAspectRatio="xMidYMid meet" version="1.0"><defs><g/></defs><g fill="#000000" fill-opacity="1"><g transform="translate(84.326043, 199.675084)"><g><path d="M 31.484375 -24.078125 C 34.054688 -21.273438 35.34375 -17.835938 35.34375 -13.765625 C 35.34375 -9.691406 34.054688 -6.242188 31.484375 -3.421875 C 28.921875 -0.609375 25.65625 0.796875 21.6875 0.796875 C 18.050781 0.796875 15.050781 -0.34375 12.6875 -2.625 L 12.6875 13.921875 L 3.21875 13.921875 L 3.21875 -27.484375 L 12.59375 -27.484375 L 12.59375 -24.375 L 12.6875 -24.375 C 15.050781 -26.976562 18.050781 -28.28125 21.6875 -28.28125 C 25.65625 -28.28125 28.921875 -26.878906 31.484375 -24.078125 Z M 23.421875 -9.09375 C 24.660156 -10.3125 25.28125 -11.867188 25.28125 -13.765625 C 25.28125 -15.660156 24.691406 -17.203125 23.515625 -18.390625 C 22.335938 -19.585938 20.785156 -20.1875 18.859375 -20.1875 C 16.992188 -20.1875 15.460938 -19.578125 14.265625 -18.359375 C 13.078125 -17.148438 12.484375 -15.617188 12.484375 -13.765625 C 12.484375 -11.867188 13.097656 -10.3125 14.328125 -9.09375 C 15.554688 -7.882812 17.066406 -7.28125 18.859375 -7.28125 C 20.671875 -7.28125 22.191406 -7.882812 23.421875 -9.09375 Z M 23.421875 -9.09375 "/></g></g></g><g fill="#000000" fill-opacity="1"><g transform="translate(116.349788, 199.675084)"><g><path d="M 5.8125 -3.265625 C 2.757812 -5.984375 1.234375 -9.460938 1.234375 -13.703125 C 1.234375 -17.953125 2.820312 -21.441406 6 -24.171875 C 9.175781 -26.910156 13.101562 -28.28125 17.78125 -28.28125 C 22.382812 -28.28125 26.265625 -26.90625 29.421875 -24.15625 C 32.585938 -21.40625 34.171875 -17.921875 34.171875 -13.703125 C 34.171875 -9.492188 32.625 -6.023438 29.53125 -3.296875 C 26.445312 -0.566406 22.53125 0.796875 17.78125 0.796875 C 12.851562 0.796875 8.863281 -0.554688 5.8125 -3.265625 Z M 13.140625 -18.359375 C 11.910156 -17.148438 11.296875 -15.597656 11.296875 -13.703125 C 11.296875 -11.816406 11.882812 -10.273438 13.0625 -9.078125 C 14.25 -7.878906 15.804688 -7.28125 17.734375 -7.28125 C 19.585938 -7.28125 21.113281 -7.882812 22.3125 -9.09375 C 23.507812 -10.3125 24.109375 -11.851562 24.109375 -13.71875 C 24.109375 -15.601562 23.488281 -17.148438 22.25 -18.359375 C 21.019531 -19.578125 19.515625 -20.1875 17.734375 -20.1875 C 15.910156 -20.1875 14.378906 -19.578125 13.140625 -18.359375 Z M 13.140625 -18.359375 "/></g></g></g><g fill="#000000" fill-opacity="1"><g transform="translate(147.195352, 199.675084)"><g><path d="M 3.21875 0 L 3.21875 -27.484375 L 12.6875 -27.484375 L 12.6875 -23.515625 L 12.796875 -23.515625 C 12.867188 -23.660156 12.984375 -23.835938 13.140625 -24.046875 C 13.304688 -24.265625 13.65625 -24.640625 14.1875 -25.171875 C 14.726562 -25.710938 15.300781 -26.195312 15.90625 -26.625 C 16.507812 -27.050781 17.296875 -27.429688 18.265625 -27.765625 C 19.234375 -28.109375 20.210938 -28.28125 21.203125 -28.28125 C 22.242188 -28.28125 23.265625 -28.132812 24.265625 -27.84375 C 25.265625 -27.5625 25.992188 -27.28125 26.453125 -27 L 27.203125 -26.5625 L 23.25 -18.53125 C 22.070312 -19.53125 20.425781 -20.03125 18.3125 -20.03125 C 17.175781 -20.03125 16.195312 -19.78125 15.375 -19.28125 C 14.550781 -18.78125 13.96875 -18.171875 13.625 -17.453125 C 13.289062 -16.742188 13.050781 -16.140625 12.90625 -15.640625 C 12.757812 -15.140625 12.6875 -14.75 12.6875 -14.46875 L 12.6875 0 Z M 3.21875 0 "/></g></g></g><g fill="#000000" fill-opacity="1"><g transform="translate(169.311675, 199.675084)"><g><path d="M 4.828125 -27.484375 L 4.828125 -37.703125 L 14.296875 -37.703125 L 14.296875 -27.484375 L 20.078125 -27.484375 L 20.078125 -20.25 L 14.296875 -20.25 L 14.296875 -11.515625 C 14.296875 -8.984375 15.007812 -7.71875 16.4375 -7.71875 C 16.800781 -7.71875 17.175781 -7.785156 17.5625 -7.921875 C 17.957031 -8.066406 18.265625 -8.210938 18.484375 -8.359375 L 18.796875 -8.5625 L 21.15625 -0.90625 C 19.125 0.226562 16.800781 0.796875 14.1875 0.796875 C 12.40625 0.796875 10.867188 0.484375 9.578125 -0.140625 C 8.296875 -0.765625 7.320312 -1.601562 6.65625 -2.65625 C 6 -3.707031 5.53125 -4.8125 5.25 -5.96875 C 4.96875 -7.132812 4.828125 -8.375 4.828125 -9.6875 L 4.828125 -20.25 L 0.859375 -20.25 L 0.859375 -27.484375 Z M 4.828125 -27.484375 "/></g></g></g><g fill="#000000" fill-opacity="1"><g transform="translate(185.911968, 199.675084)"><g><path d="M 4.828125 -27.484375 L 4.828125 -33.3125 C 4.859375 -37.414062 5.816406 -40.695312 7.703125 -43.15625 C 9.597656 -45.625 12.226562 -46.859375 15.59375 -46.859375 C 17.019531 -46.859375 18.382812 -46.65625 19.6875 -46.25 C 20.988281 -45.84375 21.925781 -45.425781 22.5 -45 L 23.40625 -44.40625 L 20.078125 -37.703125 C 19.222656 -38.203125 18.28125 -38.453125 17.25 -38.453125 C 16.070312 -38.453125 15.285156 -38.050781 14.890625 -37.25 C 14.492188 -36.445312 14.296875 -35.046875 14.296875 -33.046875 L 14.296875 -27.484375 L 20.625 -27.484375 L 20.625 -20.25 L 14.296875 -20.25 L 14.296875 0 L 4.828125 0 L 4.828125 -20.25 L 0.859375 -20.25 L 0.859375 -27.484375 Z M 4.828125 -27.484375 "/></g></g></g><g fill="#000000" fill-opacity="1"><g transform="translate(201.441191, 199.675084)"><g><path d="M 5.8125 -3.265625 C 2.757812 -5.984375 1.234375 -9.460938 1.234375 -13.703125 C 1.234375 -17.953125 2.820312 -21.441406 6 -24.171875 C 9.175781 -26.910156 13.101562 -28.28125 17.78125 -28.28125 C 22.382812 -28.28125 26.265625 -26.90625 29.421875 -24.15625 C 32.585938 -21.40625 34.171875 -17.921875 34.171875 -13.703125 C 34.171875 -9.492188 32.625 -6.023438 29.53125 -3.296875 C 26.445312 -0.566406 22.53125 0.796875 17.78125 0.796875 C 12.851562 0.796875 8.863281 -0.554688 5.8125 -3.265625 Z M 13.140625 -18.359375 C 11.910156 -17.148438 11.296875 -15.597656 11.296875 -13.703125 C 11.296875 -11.816406 11.882812 -10.273438 13.0625 -9.078125 C 14.25 -7.878906 15.804688 -7.28125 17.734375 -7.28125 C 19.585938 -7.28125 21.113281 -7.882812 22.3125 -9.09375 C 23.507812 -10.3125 24.109375 -11.851562 24.109375 -13.71875 C 24.109375 -15.601562 23.488281 -17.148438 22.25 -18.359375 C 21.019531 -19.578125 19.515625 -20.1875 17.734375 -20.1875 C 15.910156 -20.1875 14.378906 -19.578125 13.140625 -18.359375 Z M 13.140625 -18.359375 "/></g></g></g><g fill="#000000" fill-opacity="1"><g transform="translate(232.286755, 199.675084)"><g><path d="M 3.21875 0 L 3.21875 -46.0625 L 12.6875 -46.0625 L 12.6875 0 Z M 3.21875 0 "/></g></g></g><g fill="#000000" fill-opacity="1"><g transform="translate(243.638794, 199.675084)"><g><path d="M 4.125 -42.796875 C 5.226562 -43.898438 6.546875 -44.453125 8.078125 -44.453125 C 9.617188 -44.453125 10.941406 -43.898438 12.046875 -42.796875 C 13.160156 -41.691406 13.71875 -40.367188 13.71875 -38.828125 C 13.71875 -37.296875 13.160156 -35.972656 12.046875 -34.859375 C 10.941406 -33.753906 9.617188 -33.203125 8.078125 -33.203125 C 6.546875 -33.203125 5.226562 -33.753906 4.125 -34.859375 C 3.019531 -35.972656 2.46875 -37.296875 2.46875 -38.828125 C 2.46875 -40.367188 3.019531 -41.691406 4.125 -42.796875 Z M 3.21875 -27.484375 L 3.21875 0 L 12.6875 0 L 12.6875 -27.484375 Z M 3.21875 -27.484375 "/></g></g></g><g fill="#000000" fill-opacity="1"><g transform="translate(255.25861, 199.675084)"><g><path d="M 5.8125 -3.265625 C 2.757812 -5.984375 1.234375 -9.460938 1.234375 -13.703125 C 1.234375 -17.953125 2.820312 -21.441406 6 -24.171875 C 9.175781 -26.910156 13.101562 -28.28125 17.78125 -28.28125 C 22.382812 -28.28125 26.265625 -26.90625 29.421875 -24.15625 C 32.585938 -21.40625 34.171875 -17.921875 34.171875 -13.703125 C 34.171875 -9.492188 32.625 -6.023438 29.53125 -3.296875 C 26.445312 -0.566406 22.53125 0.796875 17.78125 0.796875 C 12.851562 0.796875 8.863281 -0.554688 5.8125 -3.265625 Z M 13.140625 -18.359375 C 11.910156 -17.148438 11.296875 -15.597656 11.296875 -13.703125 C 11.296875 -11.816406 11.882812 -10.273438 13.0625 -9.078125 C 14.25 -7.878906 15.804688 -7.28125 17.734375 -7.28125 C 19.585938 -7.28125 21.113281 -7.882812 22.3125 -9.09375 C 23.507812 -10.3125 24.109375 -11.851562 24.109375 -13.71875 C 24.109375 -15.601562 23.488281 -17.148438 22.25 -18.359375 C 21.019531 -19.578125 19.515625 -20.1875 17.734375 -20.1875 C 15.910156 -20.1875 14.378906 -19.578125 13.140625 -18.359375 Z M 13.140625 -18.359375 "/></g></g></g><path stroke-linecap="butt" transform="matrix(0.75, 0, 0, 0.75, 71.824248, 228.073139)" fill="none" stroke-linejoin="miter" d="M -0.0000387114 5.001439 L 84.432258 5.001439 " stroke="#292929" stroke-width="10" stroke-opacity="1" stroke-miterlimit="4"/><path stroke-linecap="butt" transform="matrix(0, 0.75, -0.75, 0, 79.320402, 171.479446)" fill="none" stroke-linejoin="miter" d="M 0.00136321 5.00012 L 82.46491 5.00012 " stroke="#292929" stroke-width="10" stroke-opacity="1" stroke-miterlimit="4"/><path stroke-linecap="butt" transform="matrix(-0.899656, 0, 0, -0.899656, 309.408529, 144.449537)" fill="none" stroke-linejoin="miter" d="M -0.00180877 4.997926 L 80.089604 4.997926 " stroke="#292929" stroke-width="10" stroke-opacity="1" stroke-miterlimit="4"/><path stroke-linecap="butt" transform="matrix(0, -0.899656, 0.899656, 0, 300.64431, 203.513043)" fill="none" stroke-linejoin="miter" d="M 0.00147244 5.00216 L 72.407653 5.00216 " stroke="#292929" stroke-width="10" stroke-opacity="1" stroke-miterlimit="4"/></svg>